<mxfile host="Electron" agent="Mozilla/5.0 (Windows NT 10.0; Win64; x64) AppleWebKit/537.36 (KHTML, like Gecko) draw.io/26.0.9 Chrome/128.0.6613.186 Electron/32.2.5 Safari/537.36" version="26.0.9">
  <diagram name="Page-1" id="Pfw512TBdEc4AL0B_62l">
    <mxGraphModel dx="108" dy="498" grid="1" gridSize="10" guides="1" tooltips="1" connect="1" arrows="1" fold="1" page="1" pageScale="1" pageWidth="827" pageHeight="1169" math="0" shadow="0">
      <root>
        <mxCell id="0" />
        <mxCell id="1" parent="0" />
        <mxCell id="2" value="" style="rounded=0;whiteSpace=wrap;html=1;strokeColor=default;fillColor=default;movable=1;resizable=1;rotatable=1;deletable=1;editable=1;locked=0;connectable=1;" parent="1" vertex="1">
          <mxGeometry x="1120" y="280" width="430" height="520" as="geometry" />
        </mxCell>
        <mxCell id="IJmXjw1ShNEismxhBZoX-8" style="edgeStyle=orthogonalEdgeStyle;rounded=0;orthogonalLoop=1;jettySize=auto;html=1;exitX=0.5;exitY=1;exitDx=0;exitDy=0;entryX=0.5;entryY=0;entryDx=0;entryDy=0;" parent="1" source="IJmXjw1ShNEismxhBZoX-3" target="IJmXjw1ShNEismxhBZoX-4" edge="1">
          <mxGeometry relative="1" as="geometry" />
        </mxCell>
        <mxCell id="IJmXjw1ShNEismxhBZoX-3" value="&lt;b&gt;&lt;font style=&quot;font-size: 24px;&quot;&gt;Start&lt;/font&gt;&lt;/b&gt;" style="rounded=1;whiteSpace=wrap;html=1;arcSize=50;strokeWidth=2;" parent="1" vertex="1">
          <mxGeometry x="1191" y="320" width="100" height="50" as="geometry" />
        </mxCell>
        <mxCell id="IJmXjw1ShNEismxhBZoX-9" style="edgeStyle=orthogonalEdgeStyle;rounded=0;orthogonalLoop=1;jettySize=auto;html=1;exitX=0.5;exitY=1;exitDx=0;exitDy=0;entryX=0.5;entryY=0;entryDx=0;entryDy=0;" parent="1" source="IJmXjw1ShNEismxhBZoX-4" target="lcP_tkz22S2U3AyWu_y0-2" edge="1">
          <mxGeometry relative="1" as="geometry" />
        </mxCell>
        <mxCell id="IJmXjw1ShNEismxhBZoX-4" value="&lt;b&gt;&lt;font style=&quot;font-size: 24px;&quot;&gt;&lt;font style=&quot;&quot;&gt;En&lt;/font&gt;ter n&lt;/font&gt;&lt;/b&gt;" style="shape=parallelogram;perimeter=parallelogramPerimeter;whiteSpace=wrap;html=1;fixedSize=1;align=center;strokeWidth=2;" parent="1" vertex="1">
          <mxGeometry x="1180.5" y="410" width="121" height="40" as="geometry" />
        </mxCell>
        <mxCell id="IJmXjw1ShNEismxhBZoX-10" style="edgeStyle=orthogonalEdgeStyle;rounded=0;orthogonalLoop=1;jettySize=auto;html=1;exitX=0.5;exitY=1;exitDx=0;exitDy=0;entryX=0.5;entryY=0;entryDx=0;entryDy=0;" parent="1" target="IJmXjw1ShNEismxhBZoX-6" edge="1" source="lcP_tkz22S2U3AyWu_y0-2">
          <mxGeometry relative="1" as="geometry">
            <mxPoint x="1240" y="570" as="sourcePoint" />
            <mxPoint x="1240.5" y="620" as="targetPoint" />
          </mxGeometry>
        </mxCell>
        <mxCell id="lcP_tkz22S2U3AyWu_y0-7" value="&lt;b&gt;&lt;font style=&quot;font-size: 12px;&quot;&gt;Y&lt;/font&gt;&lt;/b&gt;" style="edgeLabel;html=1;align=center;verticalAlign=middle;resizable=0;points=[];" parent="IJmXjw1ShNEismxhBZoX-10" vertex="1" connectable="0">
          <mxGeometry x="-0.3035" relative="1" as="geometry">
            <mxPoint y="-3" as="offset" />
          </mxGeometry>
        </mxCell>
        <mxCell id="IJmXjw1ShNEismxhBZoX-11" style="edgeStyle=orthogonalEdgeStyle;rounded=0;orthogonalLoop=1;jettySize=auto;html=1;exitX=0.5;exitY=1;exitDx=0;exitDy=0;entryX=0.5;entryY=0;entryDx=0;entryDy=0;" parent="1" source="IJmXjw1ShNEismxhBZoX-6" target="IJmXjw1ShNEismxhBZoX-7" edge="1">
          <mxGeometry relative="1" as="geometry" />
        </mxCell>
        <mxCell id="IJmXjw1ShNEismxhBZoX-6" value="&lt;span style=&quot;font-size: 24px;&quot;&gt;&lt;b&gt;Print Even&lt;/b&gt;&lt;/span&gt;" style="shape=parallelogram;perimeter=parallelogramPerimeter;whiteSpace=wrap;html=1;fixedSize=1;align=center;strokeWidth=2;" parent="1" vertex="1">
          <mxGeometry x="1162.5" y="620" width="157" height="50" as="geometry" />
        </mxCell>
        <mxCell id="IJmXjw1ShNEismxhBZoX-7" value="&lt;span style=&quot;font-size: 24px;&quot;&gt;&lt;b&gt;End&lt;/b&gt;&lt;/span&gt;" style="rounded=1;whiteSpace=wrap;html=1;arcSize=50;strokeWidth=2;" parent="1" vertex="1">
          <mxGeometry x="1201" y="710" width="80" height="50" as="geometry" />
        </mxCell>
        <mxCell id="lcP_tkz22S2U3AyWu_y0-4" style="edgeStyle=orthogonalEdgeStyle;rounded=0;orthogonalLoop=1;jettySize=auto;html=1;exitX=1;exitY=0.5;exitDx=0;exitDy=0;entryX=0;entryY=0.5;entryDx=0;entryDy=0;" parent="1" source="lcP_tkz22S2U3AyWu_y0-2" target="lcP_tkz22S2U3AyWu_y0-3" edge="1">
          <mxGeometry relative="1" as="geometry" />
        </mxCell>
        <mxCell id="lcP_tkz22S2U3AyWu_y0-5" value="&lt;b&gt;&lt;font style=&quot;font-size: 12px;&quot;&gt;N&lt;/font&gt;&lt;/b&gt;" style="edgeLabel;html=1;align=center;verticalAlign=middle;resizable=0;points=[];" parent="lcP_tkz22S2U3AyWu_y0-4" vertex="1" connectable="0">
          <mxGeometry x="-0.2768" y="1" relative="1" as="geometry">
            <mxPoint x="3" y="1" as="offset" />
          </mxGeometry>
        </mxCell>
        <mxCell id="lcP_tkz22S2U3AyWu_y0-2" value="&lt;b&gt;&lt;font style=&quot;font-size: 24px;&quot;&gt;n%2 == 0?&lt;/font&gt;&lt;/b&gt;" style="rhombus;whiteSpace=wrap;html=1;strokeWidth=2;align=center;" parent="1" vertex="1">
          <mxGeometry x="1160.25" y="490" width="161.5" height="80" as="geometry" />
        </mxCell>
        <mxCell id="lcP_tkz22S2U3AyWu_y0-10" style="edgeStyle=orthogonalEdgeStyle;rounded=0;orthogonalLoop=1;jettySize=auto;html=1;exitX=0.5;exitY=1;exitDx=0;exitDy=0;" parent="1" source="lcP_tkz22S2U3AyWu_y0-3" edge="1">
          <mxGeometry relative="1" as="geometry">
            <mxPoint x="1240" y="690" as="targetPoint" />
            <Array as="points">
              <mxPoint x="1435" y="690" />
            </Array>
          </mxGeometry>
        </mxCell>
        <mxCell id="lcP_tkz22S2U3AyWu_y0-3" value="&lt;span style=&quot;font-size: 24px;&quot;&gt;&lt;b&gt;Print Odd&lt;/b&gt;&lt;/span&gt;" style="shape=parallelogram;perimeter=parallelogramPerimeter;whiteSpace=wrap;html=1;fixedSize=1;align=center;strokeWidth=2;" parent="1" vertex="1">
          <mxGeometry x="1360" y="505" width="150" height="50" as="geometry" />
        </mxCell>
      </root>
    </mxGraphModel>
  </diagram>
</mxfile>
